<svg height="64" viewBox="0 0 64 64" width="64" xmlns="http://www.w3.org/2000/svg" xmlns:xlink="http://www.w3.org/1999/xlink"><linearGradient id="a" gradientUnits="userSpaceOnUse" x1="64.08" x2="64.08" y1="32.12582" y2="66.81182"><stop offset="0" stop-color="#81b4e0"/><stop offset="1" stop-color="#0c5a94"/></linearGradient><linearGradient id="b" gradientUnits="userSpaceOnUse" x1="65.59497" x2="65.59497" y1="2.11002" y2="40.61002"><stop offset="0" stop-color="#f06b59"/><stop offset="1" stop-color="#df2227"/></linearGradient><linearGradient id="c" gradientUnits="userSpaceOnUse" x1="28.26898" x2="47.729" y1="83.17502" y2="51.02201"><stop offset="0" stop-color="#388b41"/><stop offset="1" stop-color="#4cb749"/></linearGradient><linearGradient id="d" gradientUnits="userSpaceOnUse" x1="93.461" x2="72.73102" y1="86.59397" y2="36.67301"><stop offset="0" stop-color="#e4b022"/><stop offset=".3" stop-color="#fcd209"/></linearGradient><linearGradient id="e"><stop offset="0" stop-opacity=".15"/><stop offset=".3" stop-opacity=".06"/><stop offset="1" stop-opacity=".03"/></linearGradient><linearGradient id="f" gradientUnits="userSpaceOnUse" x1="34.711" x2="34.711" xlink:href="#e" y1="54.57102" y2="20.72599"/><linearGradient id="g" gradientUnits="userSpaceOnUse" x1="81.427" x2="58.159" xlink:href="#e" y1="65.50101" y2="89.19199"/><linearGradient id="h" gradientUnits="userSpaceOnUse" x1="81.09003" x2="84.474" xlink:href="#e" y1="72.31602" y2="38.89597"/><g transform="matrix(.67685339 0 0 .67685339 -11.318754 -1.378687)"><circle cx="64.113998" cy="49.494999" fill="#fff" r="46.536999"/><path d="m93.729 57.956c0-16.356-13.26-29.615-29.614-29.615-16.356 0-29.615 13.259-29.615 29.615h8.461c0-11.683 9.471-21.153 21.152-21.153 11.683 0 21.153 9.47 21.153 21.153" fill-opacity=".1"/><circle cx="66.228996" cy="55.417" fill-opacity=".1" r="16.077"/><circle cx="64.113998" cy="49.493999" fill="url(#a)" r="17.346001"/><path d="m106.421 28.341c-11.648-23.433-40.087-32.989-63.521-21.342-7.308 3.632-13.553 9.089-18.131 15.843l19.038 33c-3.507-11.144 2.686-23.021 13.83-26.527 1.959-.617 3.999-.944 6.053-.973" fill="url(#b)"/><path d="m24.77 22.841c-14.572 21.737-8.764 51.171 12.974 65.743 6.725 4.508 14.493 7.217 22.563 7.871l19.883-33.845c-7.435 9.012-20.767 10.29-29.778 2.854-3.061-2.525-5.35-5.86-6.604-9.623" fill="url(#c)"/><path d="m60.307 96.455c26.094 1.973 48.847-17.582 50.819-43.676.637-8.419-.987-16.855-4.706-24.438h-42.73c11.683.054 21.11 9.567 21.056 21.251-.021 4.726-1.625 9.31-4.556 13.018" fill="url(#d)"/><path d="m24.77 22.841 19.038 33c-1.411-4.747-1.111-9.837.845-14.385l-19.038-19.884" fill="url(#f)"/><path d="m60.307 96.455 19.883-33.845c-3.137 3.742-7.473 6.281-12.269 7.192l-8.461 26.653" fill="url(#g)"/><path d="m106.421 28.341h-42.731c6.437.03 12.51 2.988 16.5 8.038l27.076-6.769" fill="url(#h)"/></g></svg>