<svg id="Layer_1" data-name="Layer 1" xmlns="http://www.w3.org/2000/svg" viewBox="0 0 72.67 72.67"><defs><style>.cls-1{fill:#383c4a;}.cls-2{fill:#fff;}</style></defs><title>brewhouse-logo</title><circle class="cls-1" cx="36.33" cy="36.33" r="36.33"/><circle class="cls-2" cx="36.33" cy="36.33" r="34.83"/><path class="cls-1" d="M38,28.09L46.48,16h-20L34.31,28.1v2L21.52,52.21l3.06,4.42H48l3.13-4.42L38,30.1v-2ZM41,18.17a0.53,0.53,0,1,1-.53.53A0.53,0.53,0,0,1,41,18.17ZM39.4,20.68a0.53,0.53,0,1,1-.53.53A0.53,0.53,0,0,1,39.4,20.68ZM38,18.17a0.53,0.53,0,1,1-.53.53A0.53,0.53,0,0,1,38,18.17Zm-0.16,5a0.53,0.53,0,1,1-.53.53A0.53,0.53,0,0,1,37.82,23.2Zm-1.57-2.52a0.53,0.53,0,1,1-.53.53A0.53,0.53,0,0,1,36.25,20.68Zm0,5a0.53,0.53,0,1,1-.53.53A0.53,0.53,0,0,1,36.25,25.72Zm-4.72-6.49a0.53,0.53,0,1,1,.53-0.53A0.53,0.53,0,0,1,31.53,19.23Zm1.57,2.52a0.53,0.53,0,1,1,.53-0.53A0.53,0.53,0,0,1,33.1,21.75Zm0.89-3a0.53,0.53,0,1,1,.53.53A0.53,0.53,0,0,1,34,18.7Zm0.16,5a0.53,0.53,0,1,1,.53.53A0.53,0.53,0,0,1,34.14,23.73ZM44.92,48.22l2.24,3.68-2,2.2H27.65l-1.86-2.2L28,48.22H44.92Z" transform="translate(0 0)"/><path class="cls-1" d="M36.33,3A33.33,33.33,0,1,0,69.67,36.33,33.33,33.33,0,0,0,36.33,3ZM48.79,58.13h-25l-4.05-5.84L32.81,29.7V28.55l-9.07-14H49.36l-9.84,14v1.13l13.41,22.6Z" transform="translate(0 0)"/></svg>