<svg height="64" viewBox="0 0 32 32" width="64" xmlns="http://www.w3.org/2000/svg"><path d="m25.117196 13.940029-11.177559 11.176773c-.643175.643737-1.687176.643737-2.331249 0l-2.3209415-2.321137 2.9441735-2.944286c.684437.231086 1.468954.07615 2.014268-.469277.548151-.548825.701993-1.340028.465093-2.026769l2.837633-2.83752c.686515.236564 1.478589.08374 2.026767-.465429.7664-.766176.7664-2.007668 0-2.774096-.766512-.766625-2.008004-.766625-2.774854 0-.576268.576716-.718789 1.423423-.42692 2.133448l-2.646377 2.646462-.000225-6.964003c.186847-.092496.363187-.2159457.518883-.3709675.766176-.7660911.766176-2.0073587 0-2.7746577-.7664-.7660632-2.008454-.7660632-2.774096 0-.766287.767299-.766287 2.0085666 0 2.7746577.189375.1890369.408495.3321207.642304.4280152v7.0286353c-.233809.09559-.452593.237658-.642304.428043-.580424.579976-.720221 1.43185-.422537 2.144601l-2.9022376 2.902798-7.66405134-7.663608c-.64395474-.64427-.64395474-1.688271 0-2.33212l11.17744194-11.17678766c.643512-.64373592 1.687177-.64373592 2.331587 0l11.125201 11.12499266c.643739.644073.643739 1.688383 0 2.332232" fill="#f03c2e" transform="matrix(1.25 0 0 -1.25 0 32.000003)"/></svg>